<svg width="64" height="65" viewBox="0 0 64 65" fill="none" xmlns="http://www.w3.org/2000/svg">
<path d="M43.2178 0.586914C43.4635 1.54005 43.7023 2.04783 43.8545 2.35645C43.8553 2.35803 43.8557 2.35977 43.8564 2.36133C43.3762 2.41107 42.1549 2.37548 41.1113 3.60938C41.1049 3.61088 41.0982 3.61274 41.0918 3.61426C39.665 3.95077 37.3255 4.50188 35.208 5.02148C33.113 5.53556 31.1771 6.03159 30.6006 6.25391V6.25488C29.532 6.66793 26.6327 7.50961 24.1602 8.12207C14.6523 10.4766 9.38013 11.8218 6.48926 12.7695C5.0538 13.2401 4.1466 13.63 3.59766 14.0283C3.31477 14.2336 3.10379 14.4576 2.96875 14.7178C2.83184 14.9816 2.79353 15.244 2.7959 15.4912C2.80132 16.0728 3.03317 17.1806 3.36133 18.4648C3.69566 19.7732 4.14748 21.3302 4.62695 22.8486C5.10636 24.3668 5.61506 25.8536 6.0625 27.0205C6.2859 27.6031 6.49654 28.1126 6.68262 28.5088C6.77551 28.7065 6.86555 28.8823 6.9502 29.0273C7.03006 29.1642 7.12343 29.3053 7.22852 29.4092V29.4102C7.33395 29.5142 7.47975 29.7694 7.59961 30.1523C7.71441 30.5192 7.78575 30.9385 7.78711 31.3135V31.3145C7.78952 31.8322 7.98327 32.609 8.25684 33.4111C8.5365 34.2311 8.92128 35.1391 9.34473 35.9424C9.74116 36.694 10.1043 37.5726 10.3672 38.3779C10.6348 39.1978 10.7812 39.8897 10.7812 40.2861C10.7813 40.8692 10.982 41.5217 11.2754 42.1035C11.5705 42.6887 11.9852 43.2535 12.4639 43.6465C12.8336 43.9501 13.1744 44.3438 13.4209 44.7275C13.6798 45.1306 13.7863 45.4478 13.7871 45.6084V45.6094C13.7881 45.7512 13.8283 45.9114 13.8691 46.0479C13.9143 46.1989 13.9783 46.379 14.0566 46.5811C14.2138 46.9862 14.4394 47.5067 14.7168 48.1133C15.2724 49.3281 16.0479 50.9113 16.9316 52.6543C18.619 55.9821 20.7104 59.9074 22.4434 62.9922L20.9688 63.8242C19.8069 61.8936 18.7762 60.1349 18.0234 58.7764C17.6199 58.048 17.299 57.4403 17.0801 56.9863C16.9704 56.7589 16.8899 56.5767 16.8379 56.4414C16.7761 56.2804 16.7812 56.2501 16.7812 56.29C16.7812 55.4483 16.1757 54.6262 15.2812 54.626C15.067 54.626 14.7813 54.4007 14.7812 53.9863C14.7812 53.8412 14.7454 53.6685 14.7041 53.5059C14.6598 53.3315 14.5968 53.1234 14.5186 52.8896C14.3617 52.421 14.1371 51.8257 13.8633 51.1484C13.3151 49.7928 12.561 48.0855 11.7324 46.3516C10.9117 44.634 10.1659 42.9267 9.62695 41.5625C9.35742 40.8802 9.14182 40.2886 8.99414 39.8271C8.9202 39.5961 8.86425 39.4025 8.82812 39.25C8.78986 39.0884 8.78125 39.0024 8.78125 38.9727C8.78124 38.5464 8.69162 38.0859 8.55273 37.6816C8.41728 37.2874 8.21409 36.8879 7.94727 36.624C7.91106 36.5882 7.83616 36.4903 7.72363 36.2988C7.61647 36.1164 7.49135 35.8768 7.35059 35.584C7.0692 34.9986 6.73504 34.2223 6.36816 33.3076C5.63496 31.4796 4.77748 29.1221 3.94824 26.6826C3.11911 24.2435 2.3207 21.7273 1.7041 19.584C1.08338 17.4263 0.659441 15.6849 0.5625 14.7725C0.48316 14.023 0.463108 13.6188 0.602539 13.2939C0.728521 13.0006 1.03427 12.6782 1.90625 12.2832C2.77529 11.8896 4.11349 11.4644 6.16602 10.9111C8.2117 10.3597 10.9376 9.68873 14.5674 8.79785C15.8641 8.47965 17.1304 8.10464 18.1289 7.75684C18.6273 7.58323 19.0657 7.41455 19.4102 7.25977C19.5823 7.18243 19.7375 7.10533 19.8672 7.03125C19.9899 6.96118 20.1185 6.87745 20.2168 6.78027C20.2522 6.74553 20.3495 6.67847 20.54 6.59961C20.7218 6.52438 20.9547 6.45239 21.2256 6.38965C21.7677 6.26409 22.4267 6.1846 23.0625 6.18457C23.794 6.18457 25.0306 5.99033 26.4062 5.69531C27.4479 5.47191 28.5939 5.18552 29.7041 4.86523L30.7979 4.53418C35.8552 2.93201 37.4573 2.54564 38.3125 2.30664C39.2123 2.05516 39.3667 1.93744 41.3154 0.977539L43.2178 0.586914ZM29.7119 32.0127C31.5817 31.999 33.4681 32.0627 34.9277 32.2051C35.6596 32.2765 36.2699 32.3662 36.7119 32.4717C36.9339 32.5247 37.0974 32.5779 37.207 32.627C37.2513 32.6468 37.2778 32.6633 37.293 32.6729C37.312 32.7325 37.3287 32.8895 37.2031 33.1729C37.0677 33.4784 36.808 33.8269 36.4502 34.124C35.9882 34.5076 35.5795 35.0209 35.2842 35.5391C34.995 36.0465 34.7812 36.619 34.7812 37.1221C34.7812 37.4084 34.6972 37.6494 34.5859 37.8057C34.4735 37.9636 34.3645 38 34.2998 38C33.9916 38 33.7318 38.1591 33.542 38.3232C33.3435 38.4949 33.16 38.7252 32.9971 38.9814C32.67 39.496 32.3811 40.185 32.1943 40.9287C31.8478 42.31 31.189 42.7616 30.6328 42.7607C30.01 42.7595 29.1284 42.2197 28.3232 40.7959C27.7774 39.8307 26.8815 38.541 26.1846 37.709L25.8994 37.3828C25.5992 37.055 25.3138 36.6013 25.1045 36.1338C24.8917 35.6585 24.7812 35.2216 24.7812 34.9287C24.7812 34.445 24.6429 33.9849 24.3965 33.6328C24.1517 33.2832 23.7652 33.0002 23.2812 33C23.0613 33 22.8736 32.8536 22.8076 32.6543C22.8661 32.6287 22.9469 32.5984 23.0547 32.5664C23.4161 32.459 23.9589 32.3611 24.6436 32.2793C26.005 32.1166 27.8416 32.0264 29.7119 32.0127ZM62.6621 40.2979L60.8008 41.3486L42.0684 4.2959L44.0928 3.37305L62.6621 40.2979ZM30.1143 18.0654C31.0015 17.9834 31.8569 18.4115 32.2402 19.4268C32.8697 21.0953 33.644 22.6866 34.3643 23.8682C34.7232 24.4571 35.0783 24.959 35.4033 25.3203C35.5652 25.5002 35.732 25.6592 35.8994 25.7764C36.041 25.8754 36.2287 25.9766 36.4443 25.9961C36.4802 26.0373 36.5349 26.1215 36.5898 26.2656C36.7015 26.5583 36.7812 26.9954 36.7812 27.5C36.7812 27.9413 36.7356 28.1734 36.6484 28.3213C36.5765 28.4433 36.4308 28.5802 36.0244 28.6973C35.6077 28.8173 34.985 28.8965 34.0469 28.9424C33.1156 28.988 31.9085 29 30.3398 29C28.4449 29 26.6718 28.9095 25.3447 28.7646C24.6794 28.692 24.1379 28.6069 23.7539 28.5166C23.5625 28.4716 23.4252 28.4278 23.3359 28.3906C23.3368 28.3497 23.3406 28.2943 23.3525 28.2236C23.3861 28.0252 23.4661 27.7581 23.5947 27.4365C23.8508 26.7963 24.2759 26.0026 24.8096 25.2197C25.784 23.7909 26.9268 21.8008 27.5469 20.4668L27.7793 19.9385C28.2548 18.7693 29.2125 18.149 30.1143 18.0654Z" fill="black" stroke="black"/>
</svg>
