<svg width="801" height="337" viewBox="0 0 801 337" fill="none" xmlns="http://www.w3.org/2000/svg">
<path fill-rule="evenodd" clip-rule="evenodd" d="M273.607 0.400999C273.378 0.621999 269.199 1.287 264.321 1.88C259.443 2.472 254.043 3.387 252.321 3.914C250.599 4.44 246.265 5.651 242.69 6.604C239.115 7.558 235.762 8.712 235.24 9.169C234.717 9.626 233.367 10.014 232.24 10.032C231.113 10.049 229.316 10.724 228.249 11.532C227.181 12.339 225.306 13 224.082 13C222.858 13 221.707 13.337 221.523 13.75C221.123 14.65 214.903 18 213.632 18C212.354 18 193.373 29.715 190.866 32.051C189.715 33.123 188.342 34 187.815 34C187.288 34 186.707 34.354 186.523 34.787C186.34 35.22 184.193 37.132 181.753 39.037C175.525 43.898 164.299 55.396 158.846 62.5C156.313 65.8 153.447 69.367 152.477 70.426C151.507 71.486 150.452 73.173 150.134 74.176C149.816 75.179 149.234 76 148.841 76C148.448 76 146.566 79.037 144.658 82.75C142.751 86.463 140.958 89.725 140.674 90C138.843 91.773 131.733 108.987 127.847 121.052C124.932 130.105 120.758 158.044 120.758 168.5C120.758 173.628 123.478 196.384 125.326 206.723C125.961 210.272 126.191 210.108 116.056 213.355C113.232 214.26 109.819 215 108.472 215C107.125 215 105.686 215.337 105.274 215.749C104.862 216.161 102.424 217.02 99.8568 217.657C85.3448 221.259 85.1698 221.34 85.4738 224.244C85.8828 228.137 91.6488 245.292 93.0048 246.648C93.3818 247.025 93.6898 247.932 93.6898 248.664C93.6898 249.396 95.0398 252.852 96.6898 256.344C98.3398 259.836 99.6898 263.213 99.6898 263.847C99.6898 264.481 100.14 265 100.69 265C101.24 265 101.69 265.53 101.69 266.177C101.69 267.579 115.726 290.352 116.887 290.833C117.329 291.017 117.69 291.782 117.69 292.534C117.69 293.285 118.294 294.26 119.033 294.7C119.771 295.14 121.192 296.766 122.189 298.314C123.981 301.093 128.753 306.522 137.869 316.151L142.549 321.094L157.342 306.047C165.478 297.771 172.694 291 173.378 291C174.062 291 176.099 292.453 177.906 294.228C182.329 298.576 202.529 313 204.195 313C204.925 313 205.673 313.382 205.857 313.849C206.04 314.316 210.465 316.728 215.69 319.208C229.413 325.723 231.683 326.675 236.69 328.015C239.165 328.678 242.09 329.633 243.19 330.137C245.247 331.08 249.242 331.902 265.69 334.763C288.805 338.785 325.714 335.304 344.341 327.346C346.074 326.606 347.836 326 348.255 326C351.915 326 377.287 312.464 388.19 304.695C400.093 296.213 418.493 278.267 423.875 269.89C424.798 268.455 426.171 266.655 426.927 265.89C427.683 265.126 429.177 262.925 430.246 261C431.315 259.075 432.46 257.275 432.791 257C435.569 254.689 445.058 234.889 448.845 223.5C452.808 211.583 452.471 212.07 456.023 213.152C457.765 213.682 461.665 214.54 464.69 215.057C467.715 215.574 473.34 216.701 477.19 217.563C481.04 218.424 486.44 219.525 489.19 220.009C500.324 221.971 507.092 223.707 507.419 224.686C507.608 225.254 507.371 227.47 506.891 229.61C505.738 234.754 506.287 236 509.708 236C511.277 236 513.827 236.491 515.375 237.092C516.923 237.693 520.665 238.587 523.69 239.08C526.715 239.573 531.213 240.391 533.686 240.899C538.882 241.965 539.316 241.587 540.288 235.159L540.944 230.819L545.067 231.312C547.335 231.583 552.601 232.526 556.77 233.407C563.516 234.832 577.316 234.98 682.27 234.754L800.19 234.5L800.447 168.75L800.704 103H676.726C571.527 103 551.644 103.223 545.468 104.472C531.519 107.294 517.173 110.152 514.69 110.604C506.931 112.018 495.347 114.301 489.547 115.559C485.893 116.352 481.962 117 480.811 117C479.66 117 476.8 117.44 474.454 117.977C451.008 123.352 452.18 123.39 450.341 117.196C447.297 106.945 440.515 91.958 435.002 83.298C433.18 80.437 431.69 77.826 431.69 77.495C431.69 76.51 420.556 61.682 418.026 59.298C416.741 58.087 415.69 56.797 415.69 56.432C415.69 55.743 409.517 49.7 399.19 40.279C393.526 35.112 381.445 26.655 373.69 22.429C371.765 21.38 369.515 20.037 368.69 19.444C365.867 17.415 348.607 10 346.706 10C345.662 10 344.561 9.601 344.26 9.113C343.959 8.626 342.02 7.91 339.951 7.524C337.882 7.137 335.74 6.465 335.19 6.029C334.64 5.593 332.615 4.99 330.69 4.688C328.765 4.386 324.94 3.689 322.19 3.138C309.717 0.640001 302.948 0 288.991 0C280.759 0 273.836 0.180999 273.607 0.400999ZM310.505 4.123C311.778 4.605 314.749 5 317.106 5C319.463 5 322.696 5.413 324.291 5.919C325.885 6.424 329.89 7.6 333.19 8.532C344.21 11.644 351.131 14.139 358.295 17.584C362.203 19.463 365.915 21 366.545 21C367.175 21 367.69 21.441 367.69 21.981C367.69 22.52 368.815 23.244 370.19 23.589C371.565 23.934 372.69 24.618 372.69 25.108C372.69 25.599 373.318 26 374.085 26C375.33 26 388.857 35.167 392.202 38.277C392.925 38.95 394.916 40.571 396.626 41.88C411.248 53.076 430.516 78.014 439.601 97.5C443.615 106.11 444.085 107.324 448.431 120.328L450.044 125.155L456.117 124.463C459.457 124.082 462.948 123.372 463.874 122.885C464.801 122.398 466.826 122.001 468.374 122.003C470.866 122.005 474.376 121.341 488.934 118.111C493.632 117.069 494.102 117.622 496.072 126.5C502.053 153.461 502.117 186.994 496.233 212L494.939 217.5L491.064 217.288C488.934 217.171 485.615 216.651 483.69 216.134C481.765 215.616 476.59 214.454 472.19 213.551C467.79 212.648 462.271 211.48 459.926 210.955C450.632 208.874 450.528 208.942 447.292 219.26C444.541 228.033 441.165 236.491 438.216 242C437.48 243.375 436.048 246.075 435.034 247.999C434.02 249.924 432.932 251.724 432.617 251.999C432.302 252.275 431.742 253.175 431.373 254C430.595 255.741 428.422 259.272 427.681 260C427.401 260.275 426.051 262.184 424.681 264.243C423.311 266.302 421.853 267.989 421.44 267.993C421.027 267.997 420.69 268.454 420.69 269.009C420.69 271.18 401.562 291.025 393.69 297.021C391.215 298.906 388.965 300.721 388.69 301.054C387.275 302.77 370.657 313 369.286 313C368.408 313 367.69 313.356 367.69 313.792C367.69 314.6 360.56 318.043 350.69 322.001C347.665 323.214 344.29 324.574 343.19 325.024C338.269 327.034 331.112 329 328.712 329C327.27 329 325.628 329.462 325.063 330.027C323.494 331.596 304.775 333.369 289.69 333.377C275.156 333.385 255.809 331.519 254.249 329.959C253.722 329.432 252.227 329 250.928 329C248.689 329 240.523 326.782 236.19 324.997C235.09 324.544 230.815 322.811 226.69 321.147C213.818 315.954 196.014 305.905 190.111 300.5C189.511 299.95 187.061 297.925 184.667 296C182.273 294.075 179.033 291.263 177.468 289.75C172.909 285.346 175.02 283.858 151.233 308.25C147.076 312.512 143.211 316 142.645 316C141.428 316 134.113 308.611 128.887 302.104C126.854 299.572 124.953 297.275 124.664 297C122.724 295.155 117.69 288.014 117.69 287.106C117.69 286.498 117.311 286 116.847 286C116.384 286 115.147 284.313 114.097 282.25C113.048 280.188 111.902 278.275 111.549 278C110.257 276.991 99.7048 256.847 99.6958 255.372C99.6928 254.752 99.0148 253.685 98.1898 253C97.3648 252.315 96.6898 250.962 96.6898 249.992C96.6898 249.022 96.0178 246.94 95.1958 245.364C94.3748 243.789 93.6998 241.787 93.6958 240.917C93.6928 240.046 93.3748 239.018 92.9888 238.633C92.0798 237.724 88.7238 226.976 88.7048 224.913C88.6898 223.375 90.6548 222.723 109.69 217.956C112.165 217.336 115.09 216.478 116.19 216.048C117.29 215.619 120.44 214.731 123.19 214.075C125.94 213.419 128.494 212.572 128.865 212.192C129.236 211.811 129.091 209.475 128.542 207C127.994 204.525 127.104 199.575 126.564 196C126.024 192.425 125.115 187.25 124.545 184.5C122.738 175.783 124.529 146.234 127.667 133C131.073 118.638 141.471 91.08 143.83 90.167C144.303 89.983 144.69 89.348 144.69 88.754C144.69 87.38 149.625 79.483 156.097 70.5C161.486 63.021 167.874 55.895 176.601 47.627C179.577 44.807 182.714 41.712 183.573 40.75C184.432 39.787 185.504 39 185.956 39C186.408 39 187.991 37.875 189.473 36.5C190.956 35.125 192.53 34 192.972 34C193.413 34 194.737 33.102 195.915 32.005C200.671 27.575 228.536 13 232.252 13C233.115 13 234.794 12.48 235.982 11.844C237.171 11.208 239.504 10.346 241.166 9.929C242.829 9.512 246.665 8.439 249.69 7.544C255.086 5.948 263.265 4.604 277.19 3.023C285.261 2.107 307.086 2.827 310.505 4.123ZM5.29684 30.582C4.09884 33.704 4.63684 48.711 5.98684 49.832C6.70084 50.424 10.8628 51.042 15.2368 51.204L23.1898 51.5V107V162.5L16.1898 162.754C4.10384 163.193 4.68984 162.675 4.68984 172.937C4.68984 177.832 4.96284 182.548 5.29684 183.418C5.83084 184.809 9.32884 185 34.2968 185H62.6898V174.038V163.075L53.4398 162.788L44.1898 162.5L43.9328 95.75L43.6758 29H24.7898C8.49084 29 5.82084 29.217 5.29684 30.582ZM391.69 88.417C391.69 89.196 391.289 89.983 390.799 90.167C388.605 90.988 383.69 102.2 383.69 106.386C383.69 111.419 387.057 115.652 391.517 116.226C395.466 116.735 401.534 113.471 402.297 110.428C403.168 106.96 402.143 98.651 400.788 98.199C400.184 97.998 399.69 97.439 399.69 96.957C399.69 96.476 398.456 94.038 396.947 91.541C394.271 87.11 391.69 85.576 391.69 88.417ZM560.162 108.817C560.535 110.293 561.231 113.975 561.707 117C562.184 120.025 563.015 125.2 563.554 128.5C568.379 158.03 567.903 182.87 561.761 222C560.241 231.686 560.251 231.677 552.69 229.884C550.215 229.298 545.94 228.454 543.19 228.01C540.44 227.566 534.59 226.437 530.19 225.5C525.79 224.564 516.879 222.77 510.388 221.513C503.897 220.257 498.34 218.984 498.04 218.684C497.74 218.384 498.055 215.744 498.74 212.819C500.114 206.949 500.998 200.25 502.673 183C504.217 167.099 502.873 146.438 499.126 128.5C496.832 117.513 496.873 117.38 503.094 115.571C506.066 114.707 509.318 114 510.321 114C512.177 114 525.335 111.536 531.69 109.998C537.709 108.542 551.054 106.001 554.19 105.714C558.483 105.321 559.397 105.796 560.162 108.817ZM797.447 168.75L797.705 232H680.756C616.107 232 563.569 231.613 563.274 231.136C562.98 230.66 563.6 225.598 564.651 219.886C571.27 183.926 570.641 139.504 563.117 111.531C562.081 107.678 562.051 106.39 562.985 105.794C563.648 105.371 616.615 105.133 680.69 105.263L797.19 105.5L797.447 168.75ZM585.69 118C584.59 119.1 583.69 120.45 583.69 121C583.69 122.33 587.408 126 588.756 126C591.499 126 593.69 123.78 593.69 121C593.69 119.127 592.992 117.697 591.756 117.035C589.008 115.565 587.959 115.731 585.69 118ZM600.94 117.031C598.001 118.213 597.792 123.449 600.624 124.965C603.367 126.433 604.422 126.268 606.667 124.023C608.794 121.896 608.492 119.372 605.859 117.25C604.082 115.818 603.971 115.813 600.94 117.031ZM280.19 126.258C268.8 129.122 254.351 140.422 251.111 149C250.799 149.825 250.124 151.285 249.612 152.245C249.099 153.205 248.187 157.303 247.584 161.353C243.342 189.875 265.674 213.45 294.19 210.554C301.4 209.821 310.318 206.724 313.916 203.702C315.358 202.491 317.923 200.38 319.614 199.011C321.306 197.642 322.69 196.003 322.69 195.368C322.69 194.733 323.268 193.992 323.974 193.721C327.424 192.397 332.683 177.095 332.643 168.5C332.607 161.098 328.466 146 326.471 146C326.041 146 325.69 145.487 325.69 144.86C325.69 144.233 323.073 141.195 319.874 138.11C308.605 127.239 293.834 122.828 280.19 126.258ZM298.497 129.083C304.133 130.383 313.73 135.006 314.414 136.75C314.683 137.438 315.338 138 315.868 138C317.166 138 319.69 140.595 319.69 141.929C319.69 142.518 320.097 143 320.595 143C321.093 143 322.654 144.97 324.065 147.377C334.391 164.997 331.22 184.553 315.734 198.749C313.785 200.536 311.628 201.999 310.94 201.999C310.253 202 309.688 202.338 309.686 202.75C309.681 203.785 302.357 206.506 295.44 208.042C290.775 209.079 288.605 209.079 283.94 208.042C277.023 206.506 269.699 203.785 269.694 202.75C269.692 202.338 269.083 202 268.342 202C266.119 202 255.989 191.168 253.742 186.387C252.591 183.938 251.023 178.911 250.257 175.217C248.615 167.289 249.858 158.431 253.746 150.36C255.971 145.739 265.083 135 266.778 135C267.217 135 269.275 133.988 271.353 132.75C278.534 128.473 289.457 126.997 298.497 129.083ZM579.694 130.25C579.697 130.938 581.045 133.525 582.69 136C584.335 138.475 585.683 140.87 585.686 141.321C585.691 142.423 588.322 145 589.441 145C589.933 145 591.386 142.863 592.669 140.25C593.953 137.637 595.832 134.306 596.846 132.846C597.86 131.386 598.69 129.923 598.69 129.596C598.69 129.268 594.415 129 589.19 129C582.254 129 579.691 129.337 579.694 130.25ZM601.177 131.927C597.112 139.861 595.223 143 594.513 143C594.06 143 593.69 143.675 593.69 144.5C593.69 145.734 595.479 146 603.789 146H613.888L611.943 142.75C603.587 128.786 603.058 128.255 601.177 131.927ZM374.143 150.262C373.867 150.982 373.764 159.429 373.915 169.035L374.19 186.5H392.69H411.19V168V149.5L392.917 149.227C378.595 149.014 374.536 149.237 374.143 150.262ZM517.378 149.645C517 150.024 516.69 158.35 516.69 168.148C516.69 185.791 516.712 185.967 518.94 186.516C520.177 186.821 528.615 186.943 537.69 186.786L554.19 186.5V168V149.5L536.128 149.228C526.195 149.079 517.757 149.266 517.378 149.645ZM662.69 167.459C662.69 185.816 662.708 185.966 664.94 186.516C666.177 186.821 674.615 186.943 683.69 186.786L700.19 186.5V168V149.5L681.44 149.228L662.69 148.956V167.459ZM483.84 157C483.265 158.65 482.084 160 481.217 160C480.35 160 479.211 161.131 478.685 162.512C478.16 163.894 476.631 165.526 475.287 166.138C473.943 166.75 472.576 168.319 472.248 169.625C471.821 171.327 470.948 172 469.171 172C467.101 172 466.69 172.48 466.69 174.893C466.69 176.484 467.253 177.974 467.94 178.203C468.628 178.432 473.915 178.368 479.69 178.06L490.19 177.5L490.476 167.146C490.773 156.387 490.081 154 486.665 154C485.587 154 484.474 155.182 483.84 157ZM396.167 158.171C399.105 159.51 400.493 163.485 398.908 166.023C398.191 167.171 398.166 168.076 398.835 168.745C399.385 169.295 399.69 171.265 399.513 173.123C399.239 175.986 398.659 176.672 395.699 177.628C391.852 178.872 388.834 178.175 387.26 175.681C385.595 173.041 388.136 171.189 390.495 173.324C392.183 174.851 394.69 175.603 394.69 174.582C394.69 174.352 394.961 173.458 395.292 172.596C395.703 171.524 395.07 170.715 393.292 170.039C390.178 168.855 389.97 167.456 392.69 166C394.83 164.855 395.469 161 393.519 161C392.875 161 391.553 161.719 390.582 162.598C389.611 163.477 388.338 163.9 387.753 163.539C385.856 162.366 386.626 160.099 389.44 158.572C392.827 156.735 392.992 156.725 396.167 158.171ZM684.94 158.73C687.972 159.602 687.252 166.29 683.69 170.347C682.04 172.226 680.69 174.042 680.69 174.382C680.69 174.722 682.265 175 684.19 175C686.634 175 687.69 175.452 687.69 176.5C687.69 177.69 686.246 178 680.69 178C676.398 178 673.69 177.587 673.69 176.933C673.69 176.347 675.256 174.209 677.169 172.183C681.64 167.451 683.44 163.344 681.767 161.694C680.826 160.767 680.267 160.891 679.262 162.25C677.664 164.413 673.69 164.581 673.69 162.485C673.69 160.51 679.753 156.817 681.69 157.611C682.515 157.95 683.978 158.453 684.94 158.73ZM539.478 168.25C539.214 176.737 539.025 177.5 537.19 177.5C535.417 177.5 535.156 176.735 534.894 170.75C534.613 164.33 534.478 164 532.144 164C530.794 164 529.69 163.487 529.69 162.86C529.69 160.94 533.014 159.065 536.478 159.032L539.765 159L539.478 168.25ZM112.725 230.25C112.221 231.488 110.908 233.822 109.806 235.438C108.705 237.053 108.03 238.741 108.306 239.188C108.582 239.634 111.931 240 115.749 240C122.023 240 122.69 239.808 122.69 238C122.69 236.9 122.347 236 121.927 236C121.163 236 119.357 233.037 118.117 229.75C117.18 227.268 113.811 227.58 112.725 230.25ZM107.69 243C107.69 243.55 108.14 244 108.69 244C109.24 244 109.69 244.643 109.69 245.429C109.69 246.214 110.253 247.471 110.94 248.221C111.628 248.971 112.688 250.465 113.297 251.542C114.968 254.497 117.348 254.5 118.088 251.55C118.44 250.148 119.17 249 119.709 249C120.249 249 120.69 248.38 120.69 247.622C120.69 246.865 121.36 245.689 122.179 245.009C122.998 244.329 123.421 243.374 123.12 242.887C122.354 241.648 107.69 241.756 107.69 243ZM501.19 272.186C495.14 276.123 490.04 279.717 489.857 280.172C489.673 280.627 489.156 281 488.707 281C488.049 281 478.101 287.304 476.86 288.507C476.265 289.083 479.895 294 480.916 294C481.464 294 487.002 290.625 493.222 286.5C499.443 282.375 504.793 279 505.111 279C506.03 279 505.783 285.06 504.728 288.429C504.198 290.118 503.05 295.1 502.176 299.5C501.303 303.9 499.953 310.405 499.178 313.956C498.402 317.506 497.92 320.563 498.105 320.748C498.29 320.934 500.018 321.341 501.944 321.654C505.296 322.198 505.467 322.079 505.948 318.861C506.967 312.055 511.772 288.385 512.874 284.75C513.499 282.688 514.315 281 514.687 281C515.484 281 524.69 294.962 524.69 296.172C524.69 296.627 525.038 297 525.463 297C525.888 297 527.069 298.549 528.088 300.441C530.402 304.737 531.699 305.256 534.62 303.052C536.668 301.508 536.784 301.045 535.654 298.933C533.755 295.385 521.452 276.578 520.652 276C520.271 275.725 519.644 274.488 519.257 273.25C518.871 272.012 518.136 271 517.623 271C517.11 271 516.69 270.555 516.69 270.011C516.69 268.927 513.563 264.992 512.718 265.013C512.427 265.021 507.24 268.248 501.19 272.186ZM145.54 275C144.781 277.179 143.855 278 142.159 278C140.363 278 139.75 278.627 139.506 280.71C139.28 282.65 138.479 283.586 136.69 284.001C135.108 284.369 134.073 285.393 133.87 286.791C133.641 288.376 132.864 289 131.12 289C129.087 289 128.69 289.49 128.69 292V295H140.69H152.69V284.107C152.69 275.096 152.417 273.109 151.108 272.607C148.014 271.42 146.572 272.039 145.54 275ZM31.6898 280.702C30.1518 281.068 27.6898 285.374 27.6898 287.699C27.6898 288.415 27.2728 289 26.7628 289C26.2538 289 25.6548 289.788 25.4318 290.75C25.2098 291.712 24.6748 289.913 24.2438 286.75C23.6038 282.061 23.1118 281 21.5748 281C19.8418 281 19.6898 281.892 19.6898 292.07C19.6898 302.758 19.7628 303.128 21.7948 302.82C23.1868 302.608 24.9648 300.513 27.0448 296.632L30.1898 290.764L30.4888 296.946C30.7408 302.137 31.0608 303.075 32.4888 302.802C33.9378 302.525 34.2328 300.933 34.4768 292.075C34.7668 281.554 34.3998 280.058 31.6898 280.702ZM57.8118 280.882C55.7428 282.225 57.4148 284 60.7488 284H63.6898V293C63.6898 301.333 63.8378 302 65.6898 302C67.5408 302 67.6898 301.333 67.6898 293.029V284.057L70.6948 283.279C72.3468 282.85 73.8098 282.05 73.9448 281.5C74.2578 280.224 59.6848 279.666 57.8118 280.882ZM2.68984 288.777C2.68984 294.201 2.21784 297.228 1.13184 298.779C-1.68316 302.799 1.23084 304.482 4.65084 300.811C6.31784 299.023 6.68984 297.287 6.68984 291.311C6.68984 284.179 6.75084 284 9.18984 284C11.6808 284 11.6898 284.033 11.6898 293.5C11.6898 302.237 11.8458 303 13.6308 303C16.6458 303 16.9468 301.577 16.1848 290.929L15.4738 281H9.08184H2.68984V288.777ZM45.0518 282.5C44.7348 283.325 43.8168 284 43.0118 284C40.8788 284 38.9068 286.312 38.6718 289.085C38.1488 295.284 38.6628 296.671 42.1898 298.57C44.1148 299.607 45.6898 301.027 45.6898 301.727C45.6898 304.044 47.6468 303.055 52.1958 298.441C54.6678 295.934 56.6898 292.966 56.6898 291.845C56.6898 288.792 53.5038 284 51.4738 284C50.4928 284 49.6898 283.325 49.6898 282.5C49.6898 281.659 48.7978 281 47.6588 281C46.5408 281 45.3678 281.675 45.0518 282.5ZM604.767 283.589C601.889 286.011 601.69 286.615 601.69 292.953C601.69 298.939 601.997 300.034 604.326 302.364C607.739 305.776 610.731 305.699 614.584 302.099C617.412 299.457 617.69 298.644 617.69 293C617.69 287.356 617.412 286.543 614.584 283.901C610.757 280.326 608.722 280.261 604.767 283.589ZM624.271 283.25C624.019 284.488 623.54 288.615 623.206 292.423C622.818 296.851 622.057 299.742 621.096 300.445C619.961 301.275 619.759 302.579 620.27 305.772C621.01 310.404 623.69 311.773 623.69 307.519C623.69 303.048 631.65 302.594 632.691 307.005C633.015 308.377 633.935 309.5 634.735 309.5C635.955 309.5 636.13 307.317 635.82 296C635.617 288.575 635.252 282.163 635.011 281.75C634.77 281.337 632.357 281 629.65 281C625.348 281 624.67 281.283 624.271 283.25ZM652.561 283.75C651.964 285.262 651.073 287.281 650.582 288.236C650.092 289.191 649.687 290.766 649.684 291.736C649.68 292.706 649.069 294.667 648.325 296.093C647.58 297.519 646.656 300.37 646.269 302.428C645.671 305.621 645.816 306.121 647.263 305.835C648.351 305.62 649.626 303.352 650.825 299.5C651.852 296.2 653.075 292.6 653.542 291.5C655.434 287.042 656.597 282.658 656.099 281.853C655.097 280.231 653.643 281.01 652.561 283.75ZM665.907 292.25L666.19 303.5L671.859 303.479C680.475 303.446 683.914 299.324 680.136 293.557C679.102 291.98 678.935 290.967 679.636 290.534C681.447 289.414 680.789 284.821 678.537 282.867C677.009 281.542 674.821 281 671.004 281H665.624L665.907 292.25ZM684.378 281.646C683.999 282.024 683.69 286.953 683.69 292.599C683.69 302.109 683.843 302.914 685.764 303.523C686.904 303.885 689.16 303.634 690.776 302.964C695.883 300.849 695.982 293.204 690.934 290.793C688.812 289.779 688.077 288.596 687.69 285.569C687.211 281.817 685.835 280.188 684.378 281.646ZM696.69 292.5C696.69 303.707 697.208 305.491 699.619 302.585C701.341 300.511 699.92 281 698.047 281C696.983 281 696.69 283.483 696.69 292.5ZM702.69 281.52C702.69 281.806 703.815 283.822 705.19 286C708.33 290.973 708.325 293.06 705.164 298.455C703.002 302.143 702.862 302.852 704.191 303.362C705.664 303.927 706.427 303.313 710.234 298.5C711.511 296.885 711.928 296.778 712.401 297.943C713.372 300.34 717.641 304.148 718.655 303.522C719.798 302.815 718.964 300.171 716.807 297.666C714.777 295.308 714.928 288.499 717.063 286.141C717.958 285.152 718.69 283.59 718.69 282.671C718.69 279.949 715.731 280.765 713.893 283.994C711.733 287.79 710.208 287.792 708.53 284C707.62 281.946 706.491 281 704.946 281C703.705 281 702.69 281.234 702.69 281.52ZM725.19 282.339C722.649 285.547 721.69 288.313 721.69 292.427C721.69 294.877 722.14 297.16 722.69 297.5C723.24 297.84 723.69 298.97 723.69 300.012C723.69 302.409 729.755 304.306 733.214 302.991C736.61 301.7 737.694 298.971 737.657 291.816C737.614 283.78 735.635 280.983 730.03 281.038C727.918 281.059 725.74 281.644 725.19 282.339ZM744.69 288.096C744.69 293.684 744.247 295.813 742.606 298.118C740.964 300.424 740.662 301.876 741.183 304.961C741.901 309.206 744.312 309.665 744.882 305.665C745.126 303.953 745.976 303.435 748.948 303.189C751.401 302.986 752.844 303.333 753.102 304.189C754.409 308.515 754.711 308.929 756.152 308.376C757.886 307.711 758.381 300 756.69 300C756.094 300 755.69 296.167 755.69 290.5V281H750.19H744.69V288.096ZM564.12 283.321C563.841 284.048 563.743 289.11 563.902 294.571L564.19 304.5L569.247 304.796C573.186 305.026 574.9 304.623 576.997 302.973C579.874 300.71 580.633 296.343 578.517 294.227C577.63 293.34 577.623 292.442 578.49 290.539C579.89 287.467 579.264 285.606 576.141 283.56C573.191 281.627 564.834 281.461 564.12 283.321ZM582.69 282.874C582.69 283.355 583.86 285.842 585.291 288.402C587.807 292.903 587.839 293.167 586.264 296.485C585.369 298.372 584.199 300.186 583.663 300.517C582.198 301.422 582.494 305 584.035 305C585.587 305 588.09 302.332 589.039 299.667C589.906 297.231 591.735 297.973 593.728 301.569C595.532 304.825 598.69 306.088 598.69 303.553C598.69 302.677 597.565 300.178 596.19 298C594.815 295.822 593.69 293.572 593.69 293C593.69 292.428 594.815 290.178 596.19 288C599.206 283.222 599.313 282 596.716 282C595.533 282 594.119 283.204 593.19 285C592.337 286.65 591.212 288 590.69 288C590.168 288 589.043 286.65 588.19 285C586.765 282.245 582.69 280.67 582.69 282.874ZM674.125 284.975C677.398 286.22 677.416 288.712 674.163 290.194C670.918 291.673 669.188 290.137 670.082 286.573C670.82 283.634 670.711 283.677 674.125 284.975ZM732.524 285.3C734.339 287.487 734.873 294.278 733.444 297C730.527 302.554 725.195 298.012 726.061 290.711C726.756 284.846 729.937 282.183 732.524 285.3ZM752.144 290.476C752.988 297.235 752.219 300 749.493 300C747.535 300 747.467 299.636 748.144 292.77C748.536 288.793 749.075 285.186 749.342 284.754C750.406 283.032 751.49 285.246 752.144 290.476ZM612.133 287.223C614.917 291.197 613.856 299.495 610.425 300.584C605.822 302.045 602.883 292.687 606.305 287.465C608.307 284.41 610.111 284.335 612.133 287.223ZM630.69 292.5C630.69 299.052 630.463 300 628.893 300C627.299 300 627.143 299.236 627.517 293.25C627.867 287.652 628.766 285.118 630.44 285.015C630.578 285.007 630.69 288.375 630.69 292.5ZM574.69 288.433C574.69 291.608 570.909 293.02 569.085 290.525C567.257 288.026 568.472 286 571.797 286C574.195 286 574.69 286.416 574.69 288.433ZM45.6748 292.25C45.6928 295.463 44.2138 295.848 42.7018 293.023C41.9338 291.587 41.9828 290.503 42.8828 289.063C44.3808 286.664 45.6518 288.114 45.6748 292.25ZM51.6898 291.583C51.6898 294.005 51.2848 295.032 50.4398 294.75C48.0898 293.968 48.2838 288 50.6588 288C51.2258 288 51.6898 289.613 51.6898 291.583ZM676.585 295.373C678.532 297.719 676.805 300 673.083 300C670.195 300 669.69 299.653 669.69 297.667C669.69 296.383 669.99 295.033 670.357 294.667C671.518 293.506 675.4 293.946 676.585 295.373ZM690.69 297C690.69 298.035 690.291 299.128 689.804 299.43C688.779 300.063 687.813 297.101 688.438 295.244C689.038 293.462 690.69 294.75 690.69 297ZM575.245 297.174C575.946 299.381 573.708 302 571.121 302C569.139 302 567.485 299.22 568.175 297.048C569.107 294.11 574.302 294.202 575.245 297.174ZM54.6898 319.5C54.6898 320.325 55.1398 321 55.6898 321C56.2398 321 56.6898 322.745 56.6898 324.878C56.6898 327.104 57.3288 329.285 58.1898 330C59.4898 331.079 59.6898 330.562 59.6898 326.122C59.6898 322.236 60.0518 321 61.1898 321C62.0148 321 62.6898 320.325 62.6898 319.5C62.6898 318.417 61.5788 318 58.6898 318C55.8008 318 54.6898 318.417 54.6898 319.5ZM66.3118 319.865C64.0708 322.342 64.4578 328.839 66.9398 330.394C70.9698 332.918 74.9968 326.5 72.5668 321.429C70.8568 317.861 68.6298 317.304 66.3118 319.865ZM76.1018 319.369C75.8128 320.122 75.7468 323.16 75.9558 326.119C76.2488 330.282 76.5148 330.991 77.1288 329.25C78.1228 326.433 79.3848 326.401 81.5998 329.138C83.2878 331.222 83.3288 331.134 83.2608 325.601C83.2118 321.705 82.7198 319.629 81.6898 318.979C79.5028 317.597 76.7068 317.792 76.1018 319.369ZM1.35684 319.667C0.36584 320.658 0.549839 326.502 1.66484 329.435C2.41484 331.408 3.33884 332 5.66484 332C7.68684 332 8.68984 331.503 8.68984 330.5C8.68984 329.567 7.74584 329 6.18984 329C4.63384 329 3.68984 328.433 3.68984 327.5C3.68984 326.667 4.57884 326 5.68984 326C6.78984 326 7.68984 325.55 7.68984 325C7.68984 324.45 6.78984 324 5.68984 324C4.57884 324 3.68984 323.333 3.68984 322.5C3.68984 321.567 4.63384 321 6.18984 321C7.56484 321 8.68984 320.55 8.68984 320C8.68984 318.894 2.41484 318.608 1.35684 319.667ZM11.6898 324.924C11.6898 331.159 12.3528 332 17.2718 332C18.7548 332 19.6898 331.42 19.6898 330.5C19.6898 329.567 18.7458 329 17.1898 329C14.9028 329 14.6898 328.626 14.6898 324.607C14.6898 321.625 14.2078 320.029 13.1898 319.638C11.9618 319.167 11.6898 320.125 11.6898 324.924ZM22.6898 325.563V332.127L25.8628 331.813C29.7698 331.427 30.9868 329 27.2728 329C25.6438 329 24.6898 328.446 24.6898 327.5C24.6898 326.675 25.5628 326 26.6308 326C27.6988 326 28.8498 325.55 29.1898 325C29.5408 324.433 28.6998 324 27.2488 324C25.6408 324 24.6898 323.443 24.6898 322.5C24.6898 321.494 25.6968 321 27.7488 321C29.5338 321 30.5508 320.583 30.1898 320C29.8498 319.45 28.0238 319 26.1308 319H22.6898V325.563ZM32.6898 319.917C32.6898 320.386 33.4328 323.072 34.3418 325.885C35.9328 330.811 38.6898 332.913 38.6898 329.2C38.6898 328.21 39.0798 326.972 39.5578 326.45C40.0348 325.928 40.6988 324.038 41.0328 322.25C41.4948 319.778 41.2868 319 40.1648 319C39.2758 319 38.6898 319.951 38.6898 321.393C38.6898 322.709 38.0148 324.045 37.1898 324.362C36.1178 324.773 35.6898 324.264 35.6898 322.576C35.6898 321.277 35.0148 319.955 34.1898 319.638C33.3648 319.322 32.6898 319.447 32.6898 319.917ZM46.0528 321.935C45.7108 323.644 45.0398 325.284 44.5608 325.58C43.3518 326.327 43.4628 331 44.6898 331C45.2398 331 45.6898 330.55 45.6898 330C45.6898 328.607 49.0368 328.747 50.4898 330.2C51.4228 331.133 51.6898 330.578 51.6898 327.7C51.6898 325.665 51.2708 324 50.7598 324C50.2478 324 49.6848 323.023 49.5098 321.828C49.0008 318.373 46.7518 318.442 46.0528 321.935ZM630.69 321C628.451 323.239 627.989 328.899 629.89 330.8C630.55 331.46 632.323 332 633.831 332C636.572 332 638.47 330.446 637.236 329.212C636.876 328.852 636.201 329.173 635.737 329.925C634.192 332.425 631.69 330.308 631.69 326.5C631.69 322.774 634.18 320.557 635.666 322.961C636.25 323.905 636.618 323.925 637.165 323.04C637.835 321.956 635.187 319.106 633.44 319.032C633.027 319.014 631.79 319.9 630.69 321ZM641.357 319.667C640.99 320.033 640.69 322.958 640.69 326.167V332L644.94 331.882C648.759 331.775 648.885 331.698 646.19 331.122C642.546 330.343 642.251 327.851 645.69 326.895C647.919 326.275 647.958 326.189 646.047 326.1C641.689 325.897 642.731 321.018 647.14 320.985C648.83 320.972 648.927 320.799 647.69 320C645.959 318.881 642.333 318.69 641.357 319.667ZM666.94 319.662C666.138 319.986 665.69 322.286 665.69 326.083V332L669.94 331.884C672.277 331.82 673.29 331.547 672.19 331.276C667.655 330.162 666.651 327 670.832 327C673.545 327 672.669 324.593 669.803 324.173C667.999 323.908 667.799 323.574 668.754 322.423C669.404 321.64 670.78 321 671.812 321C672.845 321 673.69 320.55 673.69 320C673.69 318.978 669.193 318.753 666.94 319.662ZM677.326 319.78C677.011 320.29 677.276 322.091 677.914 323.783C678.798 326.123 678.795 327.474 677.904 329.43C676.555 332.391 677.244 332.713 679.861 330.345C680.867 329.435 681.69 329.162 681.69 329.738C681.69 330.314 682.354 331.041 683.165 331.352C684.381 331.819 684.533 331.137 684.031 327.473C683.631 324.555 683.853 322.508 684.678 321.514C685.71 320.271 685.653 320 684.362 320C683.497 320 682.381 320.73 681.882 321.622C681.079 323.057 680.797 322.991 679.436 321.048C678.591 319.841 677.641 319.27 677.326 319.78ZM688.949 319.659C688.008 320.039 688.069 320.522 689.199 321.652C690.93 323.383 691.142 327.288 689.655 330.066C688.736 331.783 688.964 332 691.69 332C694.416 332 694.644 331.783 693.725 330.066C692.405 327.599 692.384 322.307 693.69 321.5C696.582 319.713 692.622 318.175 688.949 319.659ZM698.69 320C697.388 320.841 697.407 320.971 698.833 320.985C700.826 321.003 701.69 323.017 701.69 327.641C701.69 329.704 702.097 330.867 702.69 330.5C703.24 330.16 703.69 328.066 703.69 325.847C703.69 322.599 704.096 321.707 705.775 321.268C707.359 320.853 707.539 320.52 706.525 319.877C704.73 318.739 700.539 318.805 698.69 320ZM589.19 321.063C586.99 321.422 585.978 321.78 586.94 321.858C588.354 321.973 588.69 322.959 588.69 327C588.69 329.75 589.14 332 589.69 332C590.24 332 590.69 329.96 590.69 327.468C590.69 323.73 591.07 322.795 592.861 322.132C596.041 320.956 593.816 320.308 589.19 321.063ZM597.357 320.667C596.287 321.736 596.589 332 597.69 332C598.24 332 598.69 331.325 598.69 330.5C598.69 329.675 599.317 329 600.083 329C600.849 329 601.735 329.675 602.052 330.5C603.253 333.63 604.432 331.798 604.551 326.615C604.661 321.829 604.426 321.162 602.433 320.628C599.497 319.842 598.172 319.852 597.357 320.667ZM610.94 320.718C610.253 320.965 609.67 321.917 609.646 322.833C609.622 323.75 609.028 326.106 608.326 328.069L607.05 331.638L611.92 331.569C616.325 331.507 616.729 331.309 616.147 329.5C615.793 328.4 615.271 326.277 614.988 324.782C614.402 321.692 612.775 320.058 610.94 320.718ZM618.94 320.718C617.106 321.376 617.232 332 619.073 332C619.834 332 620.759 330.988 621.129 329.75L621.8 327.5L622.898 329.75C624.174 332.366 626.211 332.691 627.083 330.418C628.101 327.765 627.761 322.471 626.49 321.2C625.557 320.267 625.019 320.611 624.071 322.75C623.338 324.404 622.82 324.852 622.771 323.872C622.67 321.834 620.592 320.124 618.94 320.718ZM657.638 322.75C657.087 324.262 656.159 326.702 655.575 328.171C654.991 329.64 654.701 331.665 654.932 332.671C655.268 334.139 655.606 333.908 656.645 331.5C660.029 323.655 660.96 320 659.572 320C659.06 320 658.19 321.238 657.638 322.75ZM70.9798 323C71.7148 325.811 70.7118 329 69.0918 329C67.5298 329 66.1918 324.741 67.0508 322.502C67.8808 320.339 70.3658 320.654 70.9798 323ZM81.4398 322.25C80.8098 324.142 77.6898 324.411 77.6898 322.573C77.6898 321.646 78.5448 321 79.7728 321C80.9948 321 81.6848 321.517 81.4398 322.25ZM564.89 326.75C565.182 332.345 565.271 332.506 568.19 332.734C570.93 332.948 570.995 332.886 568.94 332.016C565.87 330.717 566.111 328.378 569.44 327.162L572.19 326.158L569.367 326.079C565.78 325.979 566.021 322.916 569.695 321.894C571.812 321.305 571.614 321.184 568.39 321.1L564.59 321L564.89 326.75ZM574.69 326.5C574.69 330.722 575.038 332 576.19 332C577.063 332 577.712 331.06 577.742 329.75L577.795 327.5L579.364 329.75C581.828 333.281 582.69 332.439 582.69 326.5C582.69 323.475 582.24 321 581.69 321C581.14 321 580.678 322.238 580.663 323.75L580.637 326.5L578.932 323.75C576.173 319.301 574.69 320.262 574.69 326.5ZM602.69 324.559C602.69 326.256 600.113 326.494 599.121 324.888C598.367 323.668 600.613 321.834 601.892 322.625C602.331 322.896 602.69 323.766 602.69 324.559ZM48.6898 325C48.6898 325.55 48.2398 326 47.6898 326C47.1398 326 46.6898 325.55 46.6898 325C46.6898 324.45 47.1398 324 47.6898 324C48.2398 324 48.6898 324.45 48.6898 325Z" fill="black"/>
</svg>
